<svg xmlns="http://www.w3.org/2000/svg" width="820" height="300" viewBox="0 0 820 300" font-family="Menlo, Consolas, monospace" font-size="17">
  <rect width="820" height="300" rx="10" fill="#141414"/>
  <circle cx="28" cy="26" r="7" fill="#ff5f57"/>
  <circle cx="52" cy="26" r="7" fill="#febc2e"/>
  <circle cx="76" cy="26" r="7" fill="#28c840"/>

  <text x="28" y="66" fill="#ffffff" font-weight="bold">authenticator-clui<tspan fill="#8f8f8f" font-weight="normal"> · 3 account(s) · 10:30:45 AM · Ctrl+C to exit</tspan></text>

  <!-- table frame -->
  <rect x="28" y="86" width="672" height="188" fill="none" stroke="#d8d8d8" stroke-width="1.4"/>
  <line x1="470" y1="86" x2="470" y2="274" stroke="#d8d8d8" stroke-width="1.4"/>
  <line x1="590" y1="86" x2="590" y2="274" stroke="#d8d8d8" stroke-width="1.4"/>
  <line x1="28" y1="127" x2="700" y2="127" stroke="#d8d8d8" stroke-width="1.4"/>
  <line x1="28" y1="176" x2="700" y2="176" stroke="#d8d8d8" stroke-width="1.4"/>
  <line x1="28" y1="225" x2="700" y2="225" stroke="#d8d8d8" stroke-width="1.4"/>

  <!-- header row -->
  <text x="44" y="113" fill="#ffffff" font-weight="bold">Account</text>
  <text x="486" y="113" fill="#ffffff" font-weight="bold">Code</text>
  <text x="606" y="113" fill="#ffffff" font-weight="bold">Expires</text>

  <!-- data rows -->
  <text x="44" y="158" fill="#56b6c2">GitHub(demo@example.com)</text>
  <text x="486" y="158" fill="#ffffff" font-weight="bold">483921</text>
  <text x="606" y="158" fill="#98c379">18s</text>

  <text x="44" y="207" fill="#56b6c2">AWS(demo@example.com)</text>
  <text x="486" y="207" fill="#ffffff" font-weight="bold">067254</text>
  <text x="606" y="207" fill="#98c379">18s</text>

  <text x="44" y="256" fill="#56b6c2">Google(demo@example.com)</text>
  <text x="486" y="256" fill="#ffffff" font-weight="bold">719038</text>
  <text x="606" y="256" fill="#98c379">18s</text>
</svg>
